<svg width="96" height="38" viewBox="0 0 96 38" fill="none" xmlns="http://www.w3.org/2000/svg">
<path d="M3.20867 22.6L3.17867 22.63C3.20867 22.6 3.20867 22.6 3.20867 22.57V22.42C3.53867 20.65 4.16867 18.91 4.79867 17.2C5.45867 15.4 6.08867 13.63 6.92867 11.92C7.70867 10.3 8.60867 8.71 9.62867 7.24C10.5287 5.89 11.6087 4.42 12.9887 3.52C13.4087 3.4 13.8287 2.95 14.3687 3.04C14.9087 3.13 14.9087 3.7 14.7887 4.24C14.9387 3.82 15.0287 3.37 14.6687 3.07C14.1887 2.71 13.2587 3.28 12.8687 3.55C12.6887 3.61 12.5087 3.73 12.3587 3.85C12.4487 3.76 12.5687 3.67 12.7187 3.58L12.5687 3.64L12.9887 3.4C13.4687 3.13 14.5487 2.53 14.9087 3.31C15.1787 3.94 14.7587 4.99 14.5487 5.59C14.1587 6.61 13.6787 7.57 13.1687 8.53C13.2587 8.32 13.6187 7.51 13.6187 7.51C13.4087 7.48 12.4487 9.7 12.2687 9.76H12.2987C12.1787 9.85 12.0887 9.94 12.0887 9.97C12.0287 10.33 12.4487 10.24 12.6887 10.21C13.7087 10.09 15.0287 9.22 15.6887 8.47C16.4087 7.66 16.6787 6.43 16.6787 5.35V5.32C16.6487 3.28 15.2387 0.699998 12.8087 0.849998C11.4587 0.909999 10.1987 2.23 9.32867 3.13C8.69867 3.85 8.09867 4.63 7.55867 5.41C7.31867 5.77 7.07867 6.1 6.86867 6.46C6.62867 6.79 6.14867 7.3 6.02867 7.69C6.02867 7.69 6.17867 7.51 6.29867 7.39C5.96867 7.9 5.66867 8.44 5.36867 8.95C5.33867 8.92 5.54867 8.5 5.54867 8.5C5.27867 8.44 4.04867 10.9 3.89867 11.17C3.35867 12.16 2.87867 13.15 2.54867 14.2C2.18867 15.37 1.70867 16.48 1.34867 17.62C1.16867 18.19 0.988672 18.73 0.868672 19.3C0.808672 19.57 0.748672 19.81 0.718672 20.08C0.718672 20.11 0.658672 20.59 0.718672 20.53C0.658672 20.74 0.658672 21.01 0.628672 21.22C0.628672 21.22 0.628672 20.71 0.658672 20.65C0.538672 20.8 0.628672 21.37 0.598672 21.43C0.448672 22.57 0.208672 23.77 0.598672 24.88C1.10867 26.41 2.36867 27.67 3.74867 28.48C4.46867 28.93 5.42867 29.44 6.32867 29.38C7.37867 29.32 8.39867 28.45 9.17867 27.82C11.4587 25.9 13.5287 23.2 13.9187 20.14C13.9487 19.93 14.0987 18.88 13.7387 18.85C13.4087 18.82 13.1687 19.54 13.0487 19.72C12.1487 21.19 11.0987 22.57 9.92867 23.83C8.72867 25.15 7.22867 26.56 5.39867 26.98C5.15867 27.04 4.88867 27.07 4.61867 27.07C4.25867 27.04 3.92867 26.95 3.65867 26.68C3.50867 26.53 3.35867 26.02 3.17867 25.93C3.17867 25.78 3.14867 25.63 3.11867 25.54L3.02867 25.36C2.99867 24.46 3.02867 23.62 3.17867 22.69V22.66C3.17867 22.63 3.20867 22.63 3.20867 22.6ZM8.48867 7.93C7.31867 9.85 6.32867 11.83 5.33867 13.87C4.76867 15.07 4.19867 16.3 3.74867 17.59C4.37867 15.58 5.12867 13.66 6.02867 11.74C7.10867 9.43 8.54867 7.18 10.2587 5.32C9.56867 6.16 8.96867 7.12 8.48867 7.93ZM11.5787 4.63C11.1587 5.05 10.7687 5.53 10.4087 5.98C10.9787 5.23 11.5787 4.48 12.3287 3.88C12.0587 4.12 11.7887 4.42 11.5787 4.63ZM14.6387 4.87C14.6987 4.69 14.7587 4.48 14.7887 4.24C14.7287 4.51 14.6087 4.78 14.6087 4.99C14.6387 4.93 14.6387 4.9 14.6387 4.87ZM29.1594 17.53C29.1594 17.53 29.1894 17.56 29.1594 17.5C29.0094 17.29 28.7994 17.44 28.5894 17.5C27.7194 17.68 26.8194 17.89 25.9194 18.04C26.2494 16.96 26.5794 15.82 26.6994 14.71C26.7594 14.29 26.7894 13.84 26.6994 13.42C26.6394 13.15 26.5494 12.88 26.3994 12.64C26.3994 12.64 26.0394 12.19 26.1294 12.43L26.0994 12.4L25.9794 12.16L26.0994 12.28C26.1294 12.1 25.6194 11.77 25.6194 11.77C24.8694 11.02 23.8494 10.45 22.8294 11.02C22.1994 11.38 21.6894 11.98 21.2694 12.58C21.1194 12.79 20.9694 13.03 20.8494 13.27C20.7294 13.51 20.5494 14.29 20.3694 14.41C20.2194 14.53 19.7694 14.56 19.5594 14.68C19.2594 14.8 18.9894 14.95 18.7494 15.13C18.1794 15.49 17.7294 16 17.3094 16.51C16.5894 17.47 16.2294 18.55 15.7194 19.51C14.7594 21.34 15.8094 23.74 17.5794 24.61C18.1494 24.88 18.8094 25 19.4094 24.94C20.0394 24.85 20.6394 24.52 21.1194 24.16C21.5694 23.83 22.5594 23.23 22.7394 22.72C22.7394 22.69 22.6794 22.72 22.5894 22.81L23.4594 21.79C23.4894 21.82 23.2494 22.12 23.2494 22.12C23.4594 22.21 24.5394 20.62 24.6594 20.5C24.8694 20.14 25.0794 19.75 25.3194 19.39C25.5294 19.12 25.4694 19.15 25.7694 19.03C25.7394 19.06 26.1294 18.94 26.1894 18.94C26.5194 18.88 30.0294 18.64 29.1594 17.53ZM18.7794 23.59H18.7494C16.2594 23.95 19.1394 18.67 19.1994 18.37L19.0194 18.64C19.4694 17.74 19.8894 17.02 20.0994 16.78C20.4294 18.28 22.0494 18.85 23.3694 19.03C22.4994 20.77 20.8794 23.2 18.7794 23.59ZM24.6894 15.28C24.4794 16.12 24.2994 17.23 23.8494 17.98C23.6994 18.28 23.7894 18.19 23.4894 18.25C23.3094 18.31 22.9194 18.25 22.7394 18.22C22.4094 18.19 22.0194 18.13 21.7794 17.92C21.3594 17.56 21.4194 16.99 21.4794 16.48C21.5394 15.97 21.6894 15.49 21.8694 15.01C21.9594 14.83 22.5294 13.87 22.4394 13.69C22.4094 13.6 22.0794 14.14 22.0494 14.17C22.2294 13.84 22.4094 13.66 22.5594 13.45C22.5294 13.45 22.5594 13.42 22.5894 13.36V13.39L22.6194 13.33C22.6194 13.33 22.6194 13.3 22.6494 13.3C23.0994 12.7 24.2094 11.35 24.8094 12.28C25.2594 13.06 24.8394 14.53 24.6894 15.28ZM22.6194 13.33L22.6494 13.3C22.6494 13.33 22.6194 13.33 22.6194 13.33ZM44.8081 17.68V17.65C44.6281 16.66 43.2781 18.31 43.0981 18.46C42.2281 19.42 41.4181 20.47 40.6381 21.52C39.8581 22.6 39.1081 23.68 38.2981 24.76C37.9081 25.3 37.5181 25.81 37.0681 26.29C36.9181 26.47 36.5581 26.98 36.2881 26.98C35.2381 26.98 36.0481 22.75 36.1681 22.09C36.3481 20.92 36.4381 19.36 37.1881 18.43C37.3681 18.19 39.4081 15.58 39.4081 15.58C39.3481 15.55 39.1081 15.85 38.9581 16.03L40.2481 14.29L40.3381 14.17H40.3681H40.3381L40.5781 13.84C40.6081 13.87 40.5781 13.93 40.5481 13.99L40.8181 13.69L41.5981 12.67C42.1681 11.86 42.7081 10.99 43.2181 10.15C44.0281 8.77 45.1381 6.79 44.5381 5.11C44.0881 3.88 42.4381 3.64 41.3281 4.06C40.5181 4.36 39.8281 4.99 39.2581 5.65C38.9581 6.04 38.6581 6.46 38.3881 6.91C38.2981 7.03 37.9081 7.99 37.8181 8.11H37.8481C37.6681 8.44 37.4881 8.77 37.3681 9.1C37.4281 8.86 37.5781 8.38 37.6981 8.29C37.4581 8.47 37.2481 9.34 37.1881 9.43C36.0481 11.92 35.0581 14.44 34.3381 17.08C33.5281 16.15 32.2381 14.56 30.8281 15.13C29.6581 15.61 28.7881 16.84 28.1881 17.92C27.6481 18.88 27.4981 19.87 27.1081 20.8C26.4181 22.39 26.0881 25.66 28.4281 26.14C29.1481 26.29 29.8081 25.84 30.3781 25.45C31.3981 24.7 32.3581 23.83 33.2581 22.93C33.1081 24.52 32.7781 26.92 34.0681 28.18C35.6581 29.8 37.2481 27.61 38.2081 26.41C39.4381 24.85 40.3981 23.11 41.6281 21.61C42.2281 20.89 42.8281 20.17 43.4581 19.51C43.9381 19.03 44.8981 18.43 44.8081 17.68ZM33.7681 19.66C33.7381 19.75 33.7381 19.81 33.7381 19.81C33.6181 20.53 33.6181 21.16 33.1081 21.67C32.6581 22.15 32.1781 22.6 31.6981 23.05C31.2481 23.47 30.1681 24.7 29.4781 24.64C28.6381 24.55 29.2681 22.63 29.6881 21.46C29.2381 22.66 28.5181 24.61 29.5081 24.67C29.7781 24.7 30.2281 24.46 30.6181 24.13C30.2581 24.46 29.6581 24.91 29.2981 24.73C28.6081 24.43 29.2081 22.72 29.3281 22.24C29.7181 20.86 30.2881 19.54 30.9481 18.28C31.2781 17.65 31.7581 16.63 32.3881 16.57L32.2381 16.66C32.2681 16.63 32.2981 16.63 32.3281 16.63C32.5381 16.57 32.7481 16.72 32.8981 16.84C33.2881 17.11 33.5281 17.62 33.7981 18.01C34.0981 18.49 33.8881 19 33.7681 19.54V19.66ZM38.5981 12.73C38.5981 12.7 38.5981 12.64 38.6281 12.61V12.58C38.6581 12.49 38.6881 12.46 38.6881 12.46V12.43C39.3781 10.51 40.1281 8.59 41.2081 6.85C41.4781 6.4 42.2581 5.02 42.9481 5.41C43.2181 5.56 43.2781 5.95 43.2781 6.22C43.3981 8.02 41.9581 10.15 41.0581 11.59C40.0081 13.27 38.8381 14.92 37.6081 16.45L38.2681 15.76L38.8681 15.01L37.3381 16.99L37.1281 17.26L37.0081 17.38C37.0381 17.2 37.1881 17.02 37.3381 16.81C37.2781 16.87 37.2181 16.93 37.1881 16.99C37.5781 15.7 37.9981 14.41 38.4481 13.12C38.4181 13.15 38.4481 13.09 38.4781 12.97L38.5681 12.82C38.5681 12.79 38.5681 12.76 38.5981 12.73ZM36.0781 15.19C36.0181 15.34 35.8381 16.03 35.7481 16.12C35.7481 16.15 35.7181 16.18 35.6881 16.18C35.9281 15.88 35.7781 15.49 35.8981 15.13C35.9581 14.95 36.2581 14.62 36.3181 14.38C36.3181 14.62 36.1681 15.04 36.0781 15.19ZM31.3081 23.5C32.0581 22.84 32.7781 22.15 33.4681 21.43C33.4081 21.82 32.4781 22.48 32.1481 22.78C31.7581 23.17 31.3081 23.56 30.8581 23.92H30.8281L31.3081 23.5ZM36.6181 12.46C36.4981 12.82 36.3481 13.15 36.1681 13.48C36.3181 13.03 36.4081 12.58 36.6181 12.16C36.7981 11.83 37.0081 11.41 37.1581 11.02C37.0081 11.5 36.7681 12.01 36.6181 12.46ZM38.5681 12.82L38.4481 13.12C38.4481 13.09 38.4781 13.03 38.4781 12.97L38.5681 12.82ZM32.0881 16.78C31.9681 16.87 31.8781 16.99 31.8481 16.99C31.9081 16.99 31.9981 16.87 32.0881 16.78ZM32.9281 16.72C32.9881 16.75 33.0481 16.78 33.1081 16.84L32.9281 16.72ZM38.8681 16.18C38.8681 16.15 38.8981 16.12 38.9281 16.09C38.8981 16.15 38.8681 16.18 38.8681 16.18ZM38.9281 16.09L38.9581 16.03C38.9581 16.06 38.9281 16.09 38.9281 16.09ZM54.0955 17.59C54.0955 17.62 54.0955 17.62 54.0655 17.59V17.56C53.5855 16.75 52.9555 17.86 52.6855 18.25C52.1755 18.94 51.6955 19.6 51.1555 20.23C50.7055 20.77 50.2255 21.31 49.8655 21.88C49.8655 21.94 49.8055 22.09 49.8055 22.09C49.6855 22.27 49.5055 22.42 49.3555 22.6C49.0855 22.87 48.8155 23.17 48.5155 23.44C48.0655 23.86 45.5455 26.23 45.2155 24.7C45.0355 23.95 45.2755 23.02 45.4255 22.3C45.5155 21.91 45.6055 21.55 45.6655 21.16C45.7255 20.86 45.6355 20.56 45.7855 20.26C45.8755 20.08 45.9055 20.11 46.1155 20.05L46.6255 19.87C46.9555 19.75 47.2855 19.63 47.5855 19.45C48.0355 19.18 48.4555 18.85 48.8455 18.52C49.7755 17.74 50.7655 16.81 51.1555 15.64C51.3655 14.98 51.3955 14.26 50.9755 13.69C50.5855 13.18 49.9255 12.91 49.3255 12.79C47.7055 12.49 46.4755 13.42 45.5455 14.65C44.4055 16.06 43.5955 17.8 43.2055 19.57C42.9955 20.44 42.8755 21.31 42.7255 22.21C42.5755 23.11 42.4855 23.95 42.9655 24.79C42.9355 24.49 42.8755 24.22 42.8755 23.95C42.8755 23.8 42.9355 23.65 42.9355 23.53C42.9355 23.47 42.8755 23.29 42.8755 23.2C42.8755 22.93 42.9355 22.72 42.9955 22.45C43.0255 22.18 42.9955 21.91 43.0255 21.64C43.0555 21.34 43.1755 21.1 43.2955 20.83C43.3855 20.59 43.4155 20.38 43.5055 20.14C43.5955 19.93 43.6555 19.69 43.7455 19.45C43.7755 19.3 43.9255 19.12 44.0155 18.94C43.9255 19.21 43.7455 19.45 43.6855 19.69C43.5955 20.05 43.6555 20.44 43.6255 20.8C43.5655 21.19 43.4455 21.58 43.3855 22C43.3255 22.39 43.1455 22.75 43.0855 23.14C43.0255 23.5 42.9055 23.77 42.9355 24.13C42.9355 24.34 42.9655 24.55 42.9955 24.73C43.0255 24.97 43.1755 25.12 43.3255 25.3C43.8355 25.9 44.5255 26.38 45.3055 26.59C45.8455 26.74 46.3255 26.71 46.8355 26.44C47.5555 26.05 48.1855 25.45 48.7255 24.88C49.2355 24.31 49.6255 23.68 50.0755 23.08C50.4955 22.54 51.0055 22.03 51.4255 21.49L53.0455 19.39L53.9755 18.16C54.1255 17.98 54.2155 17.83 54.0955 17.59ZM46.6555 17.92C46.6855 17.86 46.6855 17.83 46.6855 17.83C47.1355 16.87 47.4655 15.85 48.0955 14.92L48.6355 14.2C48.7555 14.05 48.9655 13.78 49.1755 13.72C49.6255 13.63 49.7455 14.41 49.7155 14.71L49.5955 15.34C49.5655 15.52 49.6255 15.64 49.5955 15.79C49.5355 15.97 49.3855 16.06 49.2955 16.21L48.7855 16.87C48.0955 17.68 47.2255 18.37 46.2655 18.88C46.4155 18.55 46.5055 18.22 46.6555 17.92ZM70.3419 8.8C70.2219 7.84 68.7519 7.12 67.9419 7.69C67.2819 8.14 66.6819 9.37 66.2019 10.09L63.2619 14.53C62.8119 15.22 62.3619 15.91 61.8819 16.57C61.7619 16.78 60.6219 18.55 60.6219 18.55C60.7419 18.58 61.0119 18.16 61.0719 18.1C60.2619 19.24 59.2119 20.44 58.2219 21.58C57.8919 22 55.9119 24.61 55.1919 24.28C54.9519 24.16 54.8919 23.77 54.8619 23.56C54.6219 21.97 55.2219 20.38 55.4019 18.85L55.2819 19.15L55.4619 18.4C55.4619 18.49 55.4319 18.58 55.4319 18.67L55.4619 18.49L55.3719 19.39C55.7919 17.59 56.3919 15.85 57.0819 14.17C57.2619 13.75 59.0019 9.4 59.3619 9.01C59.3019 9.04 59.2119 9.16 59.1219 9.28C59.6919 8.23 60.2919 7.24 60.9819 6.28C60.8319 6.52 60.5619 6.97 60.5619 6.97C60.6819 7 61.8819 5.35 61.8819 5.17C61.8819 5.14 61.7919 5.2 61.7019 5.26C62.0019 4.87 62.2119 4.66 61.9719 4C61.6119 3.25 60.5619 2.32 59.6919 2.77C59.5119 2.89 59.3919 3.04 59.2719 3.19C58.6419 4 58.1319 5.05 57.7119 5.95C57.5619 6.31 57.4419 6.37 57.2019 6.64C56.8119 7.09 56.6019 7.69 56.3319 8.2C55.7919 9.28 55.3719 10.42 54.8919 11.53C54.4119 12.55 54.0219 13.6 53.6919 14.68C53.5419 15.1 53.4219 15.52 53.3019 15.94C53.1819 16.36 52.7619 17.14 52.8219 17.59L53.0019 17.2C52.8519 17.71 52.7319 18.25 52.6119 18.79C52.5819 18.79 52.6419 18.4 52.6419 18.4C52.5219 18.4 52.2519 19.72 52.1919 19.9C52.0719 20.53 51.9819 21.16 51.9219 21.82C51.8919 22.51 51.9219 23.14 52.2519 23.77C52.8819 24.88 54.0219 25.96 55.2519 26.35C55.4619 26.41 55.7019 26.47 55.9119 26.44C56.1219 26.41 56.3319 26.32 56.4819 26.17C56.6019 26.11 57.0819 25.6 56.7519 25.84L57.3219 25.3C57.3219 25.3 57.0519 25.63 56.9619 25.69C57.1119 25.63 57.4419 25.18 57.4419 25.18C58.4319 24.1 59.4219 23.05 60.3219 21.88C61.2519 20.62 62.0919 19.24 62.9319 17.89C62.6919 18.61 62.6319 19.33 62.4219 20.05C62.3019 20.44 62.1819 20.83 62.0919 21.22C62.0319 21.37 61.9719 22.09 62.0319 22.03C62.0319 22.12 62.0319 22.18 62.0019 22.24C62.0019 22.21 62.0019 22.18 61.9719 22.15C61.8819 22.18 61.8819 23.08 61.8519 23.23C61.7319 23.65 61.5519 24.04 61.4919 24.52C61.3419 25.78 61.4319 27.25 62.2119 28.33C62.6919 28.99 63.4119 29.35 64.2219 29.41C65.0919 29.44 65.5719 28.96 66.0219 28.3C66.3219 27.85 66.5919 27.46 66.7719 26.95C66.9219 26.53 67.2219 25.72 67.0419 25.3C66.9219 25.03 66.8619 25 66.6219 25.12C66.2919 25.24 65.9019 25.96 65.6919 26.23C65.3919 26.56 64.7919 27.4 64.2819 27.46C63.9819 27.49 64.0419 27.43 63.9819 27.07C63.9519 26.86 63.9519 25.45 63.9819 25.42C63.8919 25.54 63.8619 25.66 63.8319 25.78C63.9519 24.79 64.3719 23.59 64.6719 22.54C65.0319 21.31 65.3019 20.08 65.6319 18.85C65.9919 17.59 66.4719 16.33 66.9819 15.13C67.1019 14.86 68.4519 11.89 68.6619 11.62C68.4519 11.77 67.3719 14.05 67.0119 14.8C67.7319 13.09 68.5719 11.44 69.6219 9.88C69.6519 9.88 69.3219 10.39 69.3819 10.39C69.4719 10.45 70.1919 9.34 70.1319 9.31C70.1019 9.31 70.0719 9.31 70.0419 9.34C70.1919 9.19 70.3719 9.1 70.3419 8.8ZM62.5119 23.05C62.2419 24.28 61.9419 25.93 62.1819 27.16C61.9119 25.78 62.0019 24.22 62.2419 22.84C62.4219 21.7 62.7519 20.65 63.1419 19.6C62.8119 20.8 62.7819 21.85 62.5119 23.05ZM57.5019 11.65C58.3419 9.64 59.5419 7.81 60.8019 6.07C59.5419 7.87 58.5219 9.82 57.6219 11.83C56.9319 13.42 56.3019 14.95 55.8519 16.54C55.9419 16.12 56.0319 15.7 56.1819 15.28C56.5419 14.05 57.0219 12.85 57.5019 11.65ZM56.8119 14.56C57.3519 13.09 57.9819 11.62 58.7019 10.18C58.0419 11.56 57.1419 13.72 56.8119 14.56ZM66.3219 16.54C66.2319 16.81 66.1119 17.08 65.9919 17.32L66.5319 15.94L66.3219 16.54ZM59.1219 9.31V9.28V9.31ZM61.3719 5.35C61.3719 5.38 61.3419 5.41 61.3119 5.41C61.3419 5.41 61.3719 5.38 61.3719 5.35ZM85.7476 17.56C85.5676 17.59 84.0076 18.07 84.0976 18.31C84.0976 18.34 84.1576 18.37 84.1876 18.37C83.6776 18.58 83.0176 18.61 82.5076 18.94C81.9376 19.33 81.3976 19.72 80.7976 20.05C81.3376 19.12 81.8476 18.13 82.1776 17.14C82.2976 16.78 82.9876 14.56 82.5376 14.32C82.4776 14.29 82.4476 14.56 82.4176 14.71C82.4476 13.51 82.0576 11.68 80.4376 11.56C79.4476 11.5 78.5176 12.73 77.9776 13.39C76.7476 14.95 75.6676 16.63 74.5876 18.25C74.2876 18.7 71.2876 23.56 71.2876 23.56C71.2876 23.56 71.4976 23.26 71.7676 22.87C71.4976 23.32 71.2276 23.8 70.9876 24.28C71.1076 23.83 72.2476 20.26 72.9676 18.16C73.0276 18.07 73.0576 17.95 73.0876 17.86L73.2676 17.35V17.38C73.5376 16.57 73.8076 15.76 74.0476 14.92C74.0476 15.01 73.9276 15.46 73.9576 15.46C74.1376 15.49 74.3776 14.23 74.2576 14.23L74.1676 14.38C74.2576 13.93 74.4076 13.72 74.1376 13.21C73.9276 12.76 73.5676 12.34 73.0576 12.22C72.0676 11.95 71.5876 12.76 71.6476 13.54C71.6476 13.66 71.7976 13.72 71.7976 13.84C71.7976 13.99 71.6476 14.26 71.6176 14.38C71.4076 15.01 71.2576 15.61 71.0176 16.21C70.8976 16.54 69.7876 19.66 69.7876 19.66C69.8476 19.63 69.8776 19.57 69.9076 19.51C69.8176 19.78 69.7276 20.05 69.6076 20.32C69.5776 20.29 69.6976 20.08 69.6376 20.08C69.3376 20.02 68.5876 22.54 68.5276 22.78C68.4076 23.35 68.2576 23.89 68.0476 24.46C67.9576 24.76 67.8376 25.06 67.7476 25.39C67.7476 25.42 67.5976 26.14 67.7476 25.87C67.7176 25.96 67.6876 26.02 67.6876 26.08C67.6876 26.05 67.6576 26.02 67.6576 25.99C67.5676 26.02 67.5076 26.65 67.5076 26.68C67.3876 27.01 67.2376 27.25 67.0876 27.55C66.6976 28.51 66.4876 29.56 66.3376 30.58C66.0976 32.14 65.3776 34.48 66.1576 35.92C66.4276 36.43 67.2676 37.48 67.9276 36.85C68.2276 36.55 68.2276 35.86 68.2576 35.5C68.4376 34.51 68.5876 33.49 68.7976 32.5L69.0676 31.12C69.0976 31.06 69.3376 29.95 69.2476 29.98C69.1876 30.04 69.1276 30.13 69.0976 30.22C69.2476 29.74 69.4576 29.29 69.6376 28.78C69.8776 28.06 70.0576 27.37 70.4176 26.71C70.8376 26.05 71.1976 25.33 71.5876 24.67C71.8876 24.13 72.1576 23.44 72.4876 22.99C72.5776 22.87 72.7576 22.81 72.9076 22.69C73.2076 22.36 73.4176 21.91 73.6576 21.55C74.1076 20.83 74.4976 20.11 74.9776 19.45C75.1876 19.15 77.5876 15.79 77.8276 15.58C77.7676 15.61 77.7076 15.64 77.6476 15.7C77.8876 15.4 78.1576 15.13 78.3976 14.89C78.4276 14.92 78.2176 15.1 78.2476 15.13C78.3076 15.16 79.6876 14.08 79.9276 14.05C80.5876 13.93 80.3476 15.19 80.2576 15.52C80.1076 16.21 79.7176 16.87 79.3876 17.47C79.2076 17.8 79.0276 18.1 78.8776 18.43C78.8476 18.46 78.6076 19.03 78.6976 18.97L78.5176 19.24C78.5776 19.15 78.6076 19.03 78.6076 19.03C78.4876 19.03 78.3376 19.54 78.3076 19.63C78.1276 19.93 77.8876 20.17 77.6476 20.41C77.0176 21.13 76.4476 21.88 75.8176 22.57C75.3376 23.08 74.7076 23.98 73.9876 24.16C73.4776 24.28 73.0876 24.01 73.3576 24.82C73.5376 25.39 74.1976 26.71 74.9176 26.71C75.5776 26.71 76.3876 25.72 76.7776 25.3C77.2276 24.79 77.7376 24.31 78.2176 23.77C78.3376 23.59 79.7176 21.94 79.9276 21.85H79.8976C80.1976 21.7 80.4976 21.82 80.9176 21.52C81.1576 21.34 81.2776 21.16 81.5476 20.98C81.7576 20.86 81.8476 20.71 81.9376 20.62C81.9376 20.62 81.9376 20.65 81.9676 20.65C82.2676 20.35 82.6876 20.44 83.0776 20.17C83.5576 19.84 84.1576 19.42 84.5776 19.03C85.1176 18.55 85.8676 18.28 86.1076 17.47C85.9876 17.5 85.8376 17.5 85.7476 17.56ZM70.3876 20.62V20.65C70.3576 21.04 70.0876 21.49 69.9376 21.85C69.7276 22.42 69.5476 22.99 69.3676 23.56C68.9776 24.76 68.5276 25.96 68.0476 27.1C67.6576 28.06 67.2976 29.11 67.0276 30.16C67.3576 28.69 67.8976 27.25 68.3176 25.87C68.7076 24.61 69.3076 23.38 69.7876 22.15C69.8476 22 70.4176 20.8 70.3576 20.56C70.3876 20.59 70.3876 20.62 70.3876 20.62ZM71.7076 21.52C71.6176 21.88 71.5276 22.21 71.4076 22.51C71.4976 22.21 71.5876 21.85 71.7076 21.52ZM75.8176 16.6L75.2476 17.44C75.4276 17.17 75.6076 16.87 75.8176 16.6ZM80.7076 20.23C80.7376 20.14 80.8876 20.11 80.9776 20.05L80.7076 20.23ZM73.5376 16.72C73.5076 16.75 73.4776 16.84 73.4476 16.96L73.5376 16.72ZM73.3276 17.23L73.4476 16.96L73.3276 17.23ZM74.8876 17.98V17.95C74.9176 17.92 74.9176 17.92 74.9176 17.89C74.9476 17.86 74.9176 17.92 74.8876 17.98ZM73.3276 17.23C73.3276 17.29 73.2976 17.32 73.2676 17.35L73.3276 17.23ZM66.9676 30.43C66.9676 30.4 66.9676 30.4 66.9976 30.37C66.9976 30.4 66.9976 30.4 66.9676 30.43ZM71.8876 21.16C71.8876 21.19 71.8576 21.19 71.8576 21.19L71.8876 21.16ZM95.7948 17.95C95.7048 17.53 95.4648 17.47 95.1648 17.59C94.5948 17.86 94.0248 18.46 93.4848 18.82C92.2548 19.6 91.0248 20.23 89.7048 20.89C89.7048 20.86 89.6748 20.8 89.6448 20.71C89.6748 20.86 89.6448 20.92 89.6148 20.95C89.3148 19.66 89.0148 18.37 88.7748 17.05C88.8948 17.62 89.1648 18.58 89.3748 19.39C89.1048 18.13 88.7748 16.57 88.8048 16.57C88.7448 16.6 88.7448 16.66 88.7448 16.72C88.6848 16.36 88.5948 15.91 88.6548 15.52C88.6848 15.07 88.9248 14.68 89.0748 14.26C89.0448 14.47 88.9848 14.74 88.9848 14.74C89.1648 14.77 89.2848 13.66 89.2848 13.54C89.2548 13.36 88.8648 12.79 88.8648 12.94C88.0548 12.19 86.4648 13.84 86.2248 14.56C86.0448 15.04 86.0448 15.55 86.0748 16.06C86.1048 16.57 86.2548 17.02 86.4048 17.5C86.4948 17.86 86.3748 18.1 86.4048 18.49C86.4648 19.09 86.6748 19.69 86.7948 20.26C86.9148 20.71 87.3048 21.61 87.2148 22.03C87.1548 22.45 86.2548 22.81 85.8648 23.05C85.3548 23.38 84.8448 23.77 84.3348 24.16C83.4348 24.85 82.4748 25.72 82.1148 26.83C82.0548 26.98 81.8448 27.64 82.0548 27.76C82.0848 27.79 82.1748 27.28 82.2048 27.22C81.8148 29.2 83.7648 30.16 85.5948 30.19C87.6648 30.25 89.1048 29.05 89.8248 27.19C90.1248 26.38 90.2148 25.54 90.1848 24.7C90.1848 24.13 90.1248 23.59 90.0348 23.05C89.9748 22.57 89.9148 22.6 90.2448 22.33C90.4848 22.15 90.8448 22.03 91.0848 21.91C92.0448 21.4 92.9148 20.8 93.7848 20.17C94.4148 19.72 95.9148 18.94 95.7948 17.98V17.95ZM83.6748 28.27C82.8948 28.03 83.6748 26.8 83.9448 26.41C84.3948 25.81 85.0548 25.36 85.6548 24.94L86.5548 24.34C86.6448 24.28 87.2148 23.83 87.0348 23.89L87.3948 23.68L87.1848 23.86C87.2448 23.83 87.3348 23.8 87.3948 23.74C87.4248 24.46 87.4248 25.18 87.2148 25.9C87.1848 26.02 86.6148 27.22 86.3748 27.46L86.5248 27.34C86.2548 27.67 85.9548 27.94 85.5948 28.15C85.5948 28.12 85.8648 27.94 85.8348 27.91L84.9948 28.24C84.5748 28.33 84.0948 28.42 83.6748 28.27ZM87.4548 29.14C86.6748 29.47 85.9248 29.62 85.1148 29.65C86.5848 29.56 88.1148 28.84 88.9848 27.61C88.6548 28.27 88.2348 28.78 87.4548 29.14ZM89.6448 20.62C89.6148 20.41 89.5548 20.11 89.4648 19.78C89.5248 20.11 89.5848 20.44 89.6448 20.62ZM90.0348 23.74C90.0048 23.71 90.0048 23.65 90.0048 23.59C90.0048 23.65 90.0348 23.71 90.0348 23.74Z" fill="white"/>
</svg>
